# xmcd CD database file
#
# Track frame offsets:
#	150
#	17622
#	34602
#
# Disc length: 785 seconds
#
# Revision: 1
# Processed by: cddbd v1.5PL3 Copyright (c) Steve Scherf et al.
# Submitted via: CDex 1.40PlusFr
#
DISCID=16030f03
DTITLE=Divine Comedy - Regeneration Single
DYEAR=2001
DGENRE=Misc
TTITLE0=Bad Ambassador  Acoustic
TTITLE1=Love What You Do  (live)
TTITLE2=Regeneration  Acoustic @Oui FM, Paris
EXTD=YEAR: 2001
EXTT0=
EXTT1=
EXTT2=
PLAYORDER=
